<svg id="Layer_1" data-name="Layer 1" xmlns="http://www.w3.org/2000/svg" width="1622.01" height="1410.04" viewBox="0 0 1622.01 1410.04">
  <defs>
    <style>
      .cls-1 {
        opacity: 0.1;
      }
    </style>
  </defs>
  <g class="cls-1">
    <path d="M519.63,597.34a1279.9,1279.9,0,0,0-68.08,170.6c-18.44,58.37-32.38,118.18-40.09,178.62-1.89,15.1-3.41,30.24-4.41,45.39s-1.6,30.29-1.6,45.4.53,30.18,1.75,45.13a434.61,434.61,0,0,0,5.77,44.37,329.23,329.23,0,0,0,10.86,42.68c2.37,6.85,4.82,13.66,7.73,20.18,1.36,3.31,3,6.46,4.47,9.69l2.44,4.69c.42.77.8,1.57,1.23,2.33l1.31,2.28A149.66,149.66,0,0,0,452.36,1226c1.05,1.34,2,2.74,3.13,4l3.26,3.86c1.1,1.26,2.27,2.45,3.4,3.68s2.32,2.37,3.51,3.52a105.27,105.27,0,0,0,31.86,21.41,104,104,0,0,0,36.88,8c1.59.06,3.18.15,4.8.09s3.22,0,4.84-.09l4.86-.3c1.61-.09,3.25-.35,4.87-.5a150.94,150.94,0,0,0,19.56-3.56l2.44-.58c.81-.2,1.63-.46,2.44-.68l4.88-1.38c3.24-1.09,6.48-2,9.7-3.25,6.46-2.24,12.84-5,19.18-7.85A336.92,336.92,0,0,0,649.08,1232c24.12-15.3,46.94-33.42,68.6-53q16.23-14.74,31.65-30.57t30-32.45c39-44.46,74.25-92.63,106.34-142.88a1528.69,1528.69,0,0,0,87.12-156.48,1527.39,1527.39,0,0,0,68.63-165.43c19.49-56.34,35.39-113.87,46-172.05q3.95-21.81,6.8-43.71t4.33-43.78c1.93-29.16,2-58.3-1-86.7a336.17,336.17,0,0,0-7.08-41.73c-1.71-6.73-3.5-13.45-5.75-19.91-1-3.29-2.31-6.41-3.47-9.62l-1.95-4.68c-.33-.78-.63-1.57-1-2.34l-1.06-2.28a151.88,151.88,0,0,0-9.34-17.54c-.89-1.36-1.71-2.81-2.64-4.13l-2.78-4c-.94-1.31-2-2.55-2.93-3.84s-2-2.5-3.05-3.72a101.05,101.05,0,0,0-65.7-35.66c-1.63-.22-3.27-.47-4.94-.57s-3.31-.3-5-.38l-5.05-.16c-1.68-.07-3.39,0-5.09,0a149.43,149.43,0,0,0-20.62,1.85l-2.6.38c-.86.14-1.73.33-2.59.49l-5.2,1c-3.45.84-6.93,1.52-10.37,2.51-6.92,1.76-13.77,4.07-20.62,6.46a328.59,328.59,0,0,0-40.2,18,436.44,436.44,0,0,0-38.37,23c-12.49,8.33-24.64,17.26-36.48,26.64S770.42,254,759.18,264.16,737,284.93,726.33,295.79c-42.6,43.55-80.86,91.61-115.18,142.29A1280,1280,0,0,0,519.63,597.34Zm-6.26-3a1568.17,1568.17,0,0,1,89.92-161.4C636.51,381,673.08,331,714.06,284.38q15.41-17.43,31.71-34.14t33.7-32.43c23.22-20.91,47.93-40.49,74.89-57.44a375.65,375.65,0,0,1,42.34-22.92c7.43-3.27,14.94-6.46,22.73-9.12,3.85-1.43,7.84-2.57,11.78-3.84l6-1.65c1-.27,2-.56,3-.81l3.06-.71a191.89,191.89,0,0,1,25-4.28c2.13-.19,4.25-.46,6.41-.57l6.47-.32c2.16-.07,4.34,0,6.52-.05s4.36.09,6.56.2a146.71,146.71,0,0,1,51.94,12.12,149,149,0,0,1,44.46,30.65c1.6,1.58,3.21,3.15,4.68,4.82s3,3.29,4.49,5l4.24,5.13c1.42,1.72,2.68,3.51,4,5.27a194.56,194.56,0,0,1,14.18,22l1.59,2.84c.52.94,1,1.91,1.49,2.86l2.93,5.76c1.78,3.88,3.7,7.75,5.3,11.68,3.42,7.83,6.23,15.78,8.94,23.76a373.33,373.33,0,0,1,12.08,48.37,478.71,478.71,0,0,1,6.19,48.66c1.28,16.22,1.81,32.4,1.77,48.52s-.67,32.18-1.78,48.17-2.7,31.9-4.71,47.73C1148,553,1133.41,615,1114.33,675.27a1323.39,1323.39,0,0,1-70.19,175.85,1325.09,1325.09,0,0,1-94.32,164.17c-35.46,52.4-75,102.26-119.62,147.94q-16.76,17.1-34.5,33.31T759,1227.83c-12.61,10-25.63,19.66-39.14,28.72a477.55,477.55,0,0,1-42,25.36,374,374,0,0,1-45.42,20.53c-7.94,2.84-15.92,5.56-24.18,7.74-4.07,1.19-8.3,2.08-12.44,3.1l-6.34,1.27c-1.06.2-2.11.43-3.17.61l-3.22.51a193.75,193.75,0,0,1-26.08,2.57c-2.21,0-4.4.17-6.63.12l-6.66-.14c-2.22-.09-4.46-.29-6.68-.43s-4.46-.41-6.69-.68a149.14,149.14,0,0,1-51.62-15.84A146.59,146.59,0,0,1,437,1268.06c-1.45-1.65-2.91-3.28-4.23-5s-2.72-3.4-4-5.14l-3.76-5.27c-1.26-1.76-2.36-3.59-3.53-5.39A192.59,192.59,0,0,1,409.31,1225l-1.34-2.84c-.44-1-.82-1.91-1.24-2.87l-2.44-5.74c-1.45-3.88-3-7.71-4.29-11.62-2.76-7.76-4.92-15.63-7-23.49a373.63,373.63,0,0,1-8.31-47.41c-3.44-31.66-3.42-63.19-1.43-94.38q1.54-23.4,4.51-46.55T394.9,944c11.1-61,27.6-120.74,47.72-179A1568.93,1568.93,0,0,1,513.37,594.31Z"/>
    <path d="M531.84,620.19a733.15,733.15,0,0,0-39.08,97.94,587.43,587.43,0,0,0-23,102.55,424.17,424.17,0,0,0-3.43,52.12c0,8.68.28,17.33,1,25.91a252.92,252.92,0,0,0,3.31,25.47,184.23,184.23,0,0,0,6.23,24.5c1.37,3.93,2.78,7.84,4.45,11.58.78,1.9,1.72,3.71,2.57,5.56s1.83,3.62,2.87,5.34a87.13,87.13,0,0,0,6.51,9.93,69,69,0,0,0,7.62,8.66,58,58,0,0,0,39.44,16.91,69.43,69.43,0,0,0,11.13-.45,86.63,86.63,0,0,0,11.23-2c1.87-.41,3.74-1,5.61-1.52s3.72-1.16,5.57-1.88c3.7-1.29,7.37-2.88,11-4.51a197.84,197.84,0,0,0,21.3-11.69c13.87-8.74,26.92-19.22,39.39-30.43A453.55,453.55,0,0,0,681,917.94a674.36,674.36,0,0,0,61-82,877.42,877.42,0,0,0,50-89.84,878.31,878.31,0,0,0,39.4-95,676.7,676.7,0,0,0,26.43-98.77,454.71,454.71,0,0,0,6.41-50.23c1.05-16.74,1.17-33.47-.59-49.78a196.39,196.39,0,0,0-4.06-24c-1-3.86-2-7.72-3.29-11.43-.59-1.89-1.33-3.68-2-5.53s-1.44-3.62-2.28-5.34A85.51,85.51,0,0,0,846.69,396a69,69,0,0,0-6.56-9,59.75,59.75,0,0,0-16.74-13.74,60.51,60.51,0,0,0-21-6.7,70.86,70.86,0,0,0-11.52-.6A88.55,88.55,0,0,0,779,367c-2,.26-4,.71-6,1.07s-4,.87-6,1.44c-4,1-7.91,2.32-11.84,3.69a183.54,183.54,0,0,0-23.08,10.32,256.64,256.64,0,0,0-22,13.21C703,401.5,696,406.63,689.25,412a423.12,423.12,0,0,0-38.75,35,588.72,588.72,0,0,0-66.12,81.68A734.82,734.82,0,0,0,531.84,620.19Zm-3.59-1.74a900.17,900.17,0,0,1,51.62-92.66,697.32,697.32,0,0,1,63.59-85.27A474.89,474.89,0,0,1,681,402.29c13.36-12,27.5-23.28,43-33a219.82,219.82,0,0,1,24.31-13.16c4.26-1.88,8.57-3.72,13.05-5.25,2.21-.82,4.5-1.48,6.76-2.21s4.59-1.32,6.94-1.82a107.78,107.78,0,0,1,14.37-2.46,92.4,92.4,0,0,1,14.91-.41,84,84,0,0,1,29.82,7,85.45,85.45,0,0,1,25.51,17.61,95.19,95.19,0,0,1,10,11.6,113.63,113.63,0,0,1,8.14,12.65c1.26,2.16,2.31,4.38,3.45,6.58s2.13,4.45,3,6.7c2,4.5,3.59,9.06,5.14,13.64a211,211,0,0,1,6.94,27.76c1.68,9.31,2.81,18.63,3.55,27.94s1.06,18.6,1,27.85a452.15,452.15,0,0,1-3.7,55.06,614.33,614.33,0,0,1-24,106.55,767.79,767.79,0,0,1-94.45,195.21,614.11,614.11,0,0,1-68.67,84.93,451.48,451.48,0,0,1-40.87,37.07c-7.23,5.78-14.71,11.31-22.47,16.5s-15.77,10.09-24.11,14.55A211.8,211.8,0,0,1,596.61,1025c-4.55,1.62-9.14,3.18-13.88,4.43-2.34.68-4.76,1.19-7.14,1.77s-4.83,1-7.31,1.37a112.12,112.12,0,0,1-15,1.48,95.9,95.9,0,0,1-15.3-.64,85.73,85.73,0,0,1-29.64-9.07,84.27,84.27,0,0,1-24-19,93.23,93.23,0,0,1-8.92-11.95,107.77,107.77,0,0,1-7-12.79c-1.06-2.16-1.93-4.38-2.87-6.58s-1.74-4.43-2.47-6.67c-1.57-4.46-2.81-9-4-13.49a220.44,220.44,0,0,1-4.77-27.22c-2-18.18-1.92-36.29-.83-54.19a476,476,0,0,1,6.68-53.16,696.3,696.3,0,0,1,27.4-102.78A899.08,899.08,0,0,1,528.25,618.45Z"/>
    <path d="M1186,940.68a736,736,0,0,0-39.08,98,588.23,588.23,0,0,0-23,102.54,424.33,424.33,0,0,0-3.43,52.13c0,8.67.28,17.32,1,25.9a255.65,255.65,0,0,0,3.31,25.48,182.21,182.21,0,0,0,6.24,24.49c1.36,3.94,2.77,7.84,4.45,11.58.78,1.91,1.71,3.71,2.56,5.56s1.84,3.62,2.87,5.34a87.26,87.26,0,0,0,6.51,9.94,71.3,71.3,0,0,0,7.62,8.66,60.43,60.43,0,0,0,18.28,12.3,59.71,59.71,0,0,0,21.17,4.6,68.16,68.16,0,0,0,11.12-.45,83.8,83.8,0,0,0,11.24-2c1.87-.41,3.73-1,5.6-1.52s3.72-1.16,5.57-1.87c3.71-1.29,7.37-2.89,11-4.52a197.75,197.75,0,0,0,21.3-11.68c13.88-8.75,26.92-19.22,39.4-30.44a451.88,451.88,0,0,0,35.41-36.2,674.55,674.55,0,0,0,61-82,896.42,896.42,0,0,0,89.42-184.81A673.85,673.85,0,0,0,1512,872.83a452.33,452.33,0,0,0,6.41-50.23c1-16.74,1.17-33.47-.59-49.78a197.82,197.82,0,0,0-4-24c-1-3.87-2-7.73-3.3-11.44-.58-1.89-1.32-3.68-2-5.53s-1.45-3.62-2.29-5.34a84.83,84.83,0,0,0-5.37-10.07,68.2,68.2,0,0,0-6.55-9,59.66,59.66,0,0,0-16.75-13.75,60.43,60.43,0,0,0-21-6.69,69.69,69.69,0,0,0-11.52-.61,88.58,88.58,0,0,0-11.83,1.07c-2,.25-4,.7-6,1.06s-4,.87-6,1.44c-4,1-7.91,2.33-11.84,3.7A184.12,184.12,0,0,0,1386.35,704a256.64,256.64,0,0,0-22,13.21q-10.75,7.15-20.93,15.3a423,423,0,0,0-38.74,35,588.29,588.29,0,0,0-66.13,81.69A736,736,0,0,0,1186,940.68Zm-3.59-1.73A898.08,898.08,0,0,1,1234,846.29,697.58,697.58,0,0,1,1297.6,761a474.92,474.92,0,0,1,37.54-38.23c13.37-12,27.5-23.29,43-33a220.44,220.44,0,0,1,24.3-13.16c4.26-1.88,8.58-3.71,13-5.24,2.21-.83,4.5-1.49,6.76-2.21s4.59-1.32,7-1.83a109.55,109.55,0,0,1,14.36-2.46,93.6,93.6,0,0,1,14.91-.41,84.23,84.23,0,0,1,29.82,7,85.64,85.64,0,0,1,25.51,17.61,97.72,97.72,0,0,1,10,11.6,114.59,114.59,0,0,1,8.13,12.66c1.26,2.16,2.32,4.37,3.46,6.57s2.12,4.45,3,6.71c2,4.49,3.59,9,5.14,13.63a213,213,0,0,1,7,27.76c1.68,9.31,2.8,18.64,3.54,27.94s1.06,18.6,1,27.85a450,450,0,0,1-3.7,55.06,613.73,613.73,0,0,1-24,106.56,767.94,767.94,0,0,1-94.45,195.2,612.79,612.79,0,0,1-68.67,84.93,447.35,447.35,0,0,1-40.87,37.07c-7.23,5.78-14.7,11.31-22.47,16.5s-15.76,10.1-24.1,14.56a212.42,212.42,0,0,1-26.08,11.78c-4.56,1.62-9.14,3.19-13.89,4.43-2.33.68-4.76,1.2-7.14,1.77s-4.83,1-7.3,1.37a112.45,112.45,0,0,1-15,1.48,95.8,95.8,0,0,1-15.3-.64,85.24,85.24,0,0,1-29.64-9.07,84.27,84.27,0,0,1-24-19,91.71,91.71,0,0,1-8.93-12,107.69,107.69,0,0,1-7-12.79c-1.07-2.16-1.94-4.38-2.88-6.58s-1.74-4.42-2.46-6.67c-1.58-4.46-2.82-9-4-13.49a217.9,217.9,0,0,1-4.76-27.22c-2-18.17-1.92-36.28-.84-54.19a478.33,478.33,0,0,1,6.68-53.16,699.44,699.44,0,0,1,27.4-102.78A898.92,898.92,0,0,1,1182.39,939Z"/>
    <path d="M149.55,295a733.15,733.15,0,0,0-39.08,97.94,587.52,587.52,0,0,0-23,102.54A424.33,424.33,0,0,0,84,547.59c0,8.67.28,17.32,1,25.91A252.92,252.92,0,0,0,88.33,599a184.23,184.23,0,0,0,6.23,24.5c1.37,3.93,2.78,7.83,4.45,11.58.78,1.9,1.72,3.71,2.57,5.56s1.83,3.61,2.87,5.33a87.26,87.26,0,0,0,6.51,9.94,69.72,69.72,0,0,0,7.62,8.66,60.33,60.33,0,0,0,18.27,12.3,59.54,59.54,0,0,0,21.17,4.6,68.27,68.27,0,0,0,11.13-.44,85,85,0,0,0,11.23-2c1.87-.41,3.74-1,5.61-1.52s3.72-1.16,5.57-1.87c3.7-1.29,7.37-2.89,11-4.51a199.6,199.6,0,0,0,21.3-11.69c13.87-8.74,26.92-19.22,39.39-30.44a453.42,453.42,0,0,0,35.41-36.19,673.69,673.69,0,0,0,61.05-82,878.33,878.33,0,0,0,50-89.83,877.63,877.63,0,0,0,39.4-95,676,676,0,0,0,26.43-98.77A454.1,454.1,0,0,0,482,176.89c1-16.74,1.17-33.47-.59-49.78a196.23,196.23,0,0,0-4.06-24c-1-3.87-2-7.73-3.29-11.44-.59-1.89-1.33-3.68-2-5.53s-1.44-3.61-2.28-5.34a86.31,86.31,0,0,0-5.37-10.07,68.26,68.26,0,0,0-6.56-9,58,58,0,0,0-37.73-20.44,70.86,70.86,0,0,0-11.52-.6,86.93,86.93,0,0,0-11.84,1.06c-2,.25-4,.71-6,1.07s-4,.86-6,1.43c-4,1-7.91,2.33-11.84,3.7a184.92,184.92,0,0,0-23.08,10.31c-7.52,4-14.86,8.44-22,13.21s-14.15,9.9-20.93,15.3a424.58,424.58,0,0,0-38.75,35,588.22,588.22,0,0,0-66.12,81.69A734.09,734.09,0,0,0,149.55,295ZM146,293.24a899.13,899.13,0,0,1,51.62-92.66,697.32,697.32,0,0,1,63.59-85.27,474.89,474.89,0,0,1,37.54-38.23c13.36-12,27.5-23.28,43-33A221.5,221.5,0,0,1,366,30.94c4.26-1.88,8.57-3.71,13.05-5.24,2.21-.83,4.5-1.48,6.76-2.21s4.59-1.32,6.94-1.83a107.77,107.77,0,0,1,14.37-2.45,92.4,92.4,0,0,1,14.91-.42,84.44,84.44,0,0,1,29.82,7,85.82,85.82,0,0,1,25.51,17.61,96,96,0,0,1,10,11.61,113.63,113.63,0,0,1,8.14,12.65c1.26,2.16,2.31,4.38,3.45,6.58s2.13,4.44,3.05,6.7c2,4.49,3.59,9,5.14,13.63a211.5,211.5,0,0,1,6.94,27.77c1.68,9.31,2.81,18.63,3.55,27.94s1.06,18.59,1,27.85a452,452,0,0,1-3.7,55,614.44,614.44,0,0,1-24,106.56,761.42,761.42,0,0,1-40.3,100.95,759.73,759.73,0,0,1-54.15,94.25,614.2,614.2,0,0,1-68.67,84.94A453,453,0,0,1,287,656.93c-7.23,5.78-14.71,11.3-22.47,16.49S248.74,683.52,240.4,688a210.26,210.26,0,0,1-26.08,11.78c-4.55,1.63-9.14,3.19-13.88,4.43-2.34.69-4.76,1.2-7.14,1.78s-4.83,1-7.31,1.37a113.79,113.79,0,0,1-15,1.47,95.89,95.89,0,0,1-15.3-.63,85.73,85.73,0,0,1-29.64-9.07,84.31,84.31,0,0,1-24-19.06,93.14,93.14,0,0,1-8.92-11.94,107.77,107.77,0,0,1-7-12.79c-1.06-2.17-1.93-4.39-2.87-6.58s-1.74-4.43-2.47-6.67c-1.57-4.46-2.81-9-4-13.49a220.27,220.27,0,0,1-4.77-27.23c-2-18.17-1.92-36.28-.83-54.18A475.86,475.86,0,0,1,77.94,494a697,697,0,0,1,27.4-102.78A898.92,898.92,0,0,1,146,293.24Z"/>
  </g>
</svg>
