<svg width="536" height="826" viewBox="0 0 536 826" fill="none" xmlns="http://www.w3.org/2000/svg">
<path opacity="0.1" d="M94.9074 330.763C76.617 368.612 60.9983 407.696 48.2567 447.74C35.6521 487.783 26.0616 528.787 20.7868 570.202C19.4853 580.556 18.4577 590.91 17.7727 601.332C17.0877 611.754 16.6766 622.108 16.6766 632.462C16.6766 642.816 17.0191 653.169 17.9097 663.386C18.7317 673.603 20.0333 683.751 21.8829 693.83C23.7325 703.773 26.1986 713.509 29.3497 723.109C30.9938 727.771 32.6379 732.503 34.6245 736.959C35.5836 739.222 36.6796 741.416 37.7072 743.611L39.3512 746.833C39.6252 747.382 39.8992 747.93 40.1733 748.41L41.0638 749.987C43.3929 754.101 45.996 758.078 48.8732 761.85C49.5582 762.741 50.2433 763.701 50.9968 764.592L53.2574 767.267C54.0109 768.158 54.833 768.912 55.5865 769.804C56.34 770.695 57.1621 771.449 57.9841 772.203C64.2864 778.375 71.6848 783.38 79.8367 786.877C87.8516 790.237 96.4145 792.088 105.114 792.362C106.21 792.431 107.306 792.5 108.403 792.431C109.499 792.362 110.595 792.431 111.691 792.362L115.047 792.157C116.143 792.088 117.239 791.951 118.404 791.814C122.925 791.265 127.378 790.511 131.831 789.345L133.475 788.934C134.023 788.797 134.571 788.591 135.119 788.454L138.475 787.494C140.668 786.74 142.928 786.123 145.12 785.3C149.573 783.791 153.889 781.872 158.273 779.952C167.041 775.838 175.536 771.175 183.688 765.964C200.197 755.473 215.816 743.062 230.681 729.623C238.079 722.903 245.341 715.909 252.396 708.641C259.452 701.373 266.303 693.967 272.947 686.425C299.664 655.912 323.777 622.931 345.767 588.441C367.756 553.883 387.691 518.022 405.433 481.132C423.312 444.243 438.999 406.393 452.426 367.721C465.784 329.117 476.676 289.622 483.938 249.715C485.719 239.773 487.294 229.762 488.596 219.751C489.897 209.74 490.856 199.729 491.541 189.718C492.843 169.696 492.912 149.743 490.856 130.27C489.829 120.67 488.253 111.071 485.993 101.677C484.828 97.0829 483.595 92.4888 482.02 88.0319C481.335 85.7691 480.444 83.6435 479.622 81.4493L478.32 78.2266C478.115 77.6781 477.909 77.1296 477.635 76.6496L476.882 75.0725C475.032 70.9584 472.909 66.9129 470.511 63.0731C469.894 62.1132 469.346 61.1532 468.73 60.2618L466.812 57.5191C466.195 56.6277 465.442 55.7363 464.825 54.9135C464.209 54.0907 463.455 53.1993 462.702 52.3765C451.399 38.8 435.3 30.0233 417.695 27.8977C416.599 27.7606 415.434 27.5549 414.338 27.4863C413.242 27.4177 412.078 27.2806 410.913 27.2121L407.488 27.0749C406.323 27.0063 405.159 27.0749 403.994 27.0749C399.268 27.1435 394.541 27.6235 389.883 28.3777L388.102 28.652C387.485 28.7206 386.937 28.8577 386.32 28.9948L382.758 29.6805C380.361 30.229 378.032 30.709 375.634 31.3947C370.907 32.6289 366.18 34.206 361.522 35.8516C352.069 39.3486 342.889 43.4627 333.984 48.1939C324.942 52.9936 316.173 58.2734 307.679 63.9645C299.116 69.6556 290.827 75.8268 282.675 82.2036C274.523 88.5804 266.782 95.4372 259.041 102.363C251.3 109.288 243.834 116.625 236.572 124.03C207.39 153.857 181.153 186.838 157.656 221.602C134.091 256.366 113.198 292.913 94.9074 330.763ZM90.5917 328.706C108.951 290.65 129.502 253.692 152.176 218.037C174.919 182.45 199.991 148.166 228.078 116.145C235.134 108.191 242.327 100.374 249.793 92.7631C257.26 85.152 264.933 77.6781 272.879 70.547C288.772 56.2163 305.692 42.777 324.188 31.189C333.504 25.3607 343.232 20.081 353.165 15.4869C358.234 13.2242 363.372 11.03 368.715 9.24723C371.318 8.28728 374.058 7.46446 376.798 6.64165L380.909 5.47599C381.594 5.27029 382.279 5.06458 382.964 4.92745L385.087 4.44747C390.705 3.07611 396.459 2.11616 402.213 1.49905C403.652 1.36191 405.09 1.15621 406.597 1.08764L411.05 0.881933C412.557 0.813365 413.996 0.881934 415.503 0.813366C417.01 0.744798 418.517 0.881932 420.024 0.9505C432.286 1.49904 444.343 4.31034 455.577 9.24723C466.949 14.3213 477.224 21.4523 486.061 30.229C487.157 31.3261 488.253 32.3546 489.281 33.5203C490.308 34.686 491.336 35.783 492.364 36.9487L495.241 40.4457C496.2 41.6113 497.09 42.8456 497.981 44.0798C501.543 48.8795 504.831 53.9536 507.708 59.1647L508.804 61.0846C509.147 61.7018 509.489 62.3874 509.832 63.0731L511.819 67.0501C513.052 69.7242 514.353 72.3984 515.449 75.0725C517.778 80.4208 519.696 85.9063 521.546 91.3917C525.04 102.225 527.78 113.333 529.835 124.579C531.821 135.618 533.26 146.726 534.082 157.971C534.973 169.079 535.315 180.187 535.315 191.227C535.315 202.266 534.836 213.306 534.082 224.277C533.329 235.247 532.232 246.15 530.862 256.983C525.382 300.456 515.381 342.968 502.297 384.246C489.144 425.524 473.114 465.842 454.207 504.788C435.369 543.803 413.79 581.447 389.609 617.377C365.29 653.307 338.231 687.522 307.679 718.789C300.006 726.606 292.128 734.217 284.045 741.622C275.962 749.027 267.536 756.158 258.904 763.084C250.273 769.941 241.367 776.592 232.12 782.763C222.803 789.071 213.213 794.831 203.348 800.179C193.278 805.528 182.934 810.259 172.248 814.236C166.836 816.156 161.356 818.075 155.67 819.515C152.861 820.338 149.984 820.955 147.175 821.641L142.86 822.532C142.106 822.67 141.421 822.807 140.668 822.944L138.475 823.287C132.584 824.247 126.624 824.864 120.596 825.069C119.089 825.069 117.582 825.206 116.075 825.138L111.485 825.069C109.978 825.001 108.403 824.864 106.895 824.795C105.388 824.727 103.813 824.521 102.306 824.315C89.9752 822.875 77.9871 819.172 66.9581 813.481C56.1345 807.722 46.4071 799.973 38.3922 790.717C37.3646 789.551 36.4056 788.454 35.515 787.288C34.6245 786.123 33.6655 784.957 32.7749 783.791L30.1718 780.157C29.2812 778.923 28.5277 777.689 27.7742 776.455C24.6915 771.586 21.8829 766.444 19.4168 761.164L18.5262 759.244C18.2522 758.558 17.9782 757.941 17.7042 757.256L16.0601 753.347C15.0326 750.673 14.005 748.068 13.1145 745.393C11.1964 740.045 9.75779 734.697 8.31922 729.28C5.7161 718.583 3.79801 707.75 2.63345 696.779C0.304342 675.043 0.304347 653.444 1.67441 632.05C2.35945 621.354 3.387 610.726 4.75706 600.166C6.12713 589.607 7.77121 579.047 9.6208 568.557C17.2247 526.73 28.5277 485.795 42.2969 445.82C55.9975 405.776 72.1643 366.692 90.5917 328.706Z" fill="black" fill-opacity="0.4"/>
<path opacity="0.1" d="M103.264 346.396C92.7145 368.132 83.8091 390.554 76.4793 413.524C69.1494 436.426 63.8746 459.945 60.7235 483.806C59.2164 495.669 58.3944 507.599 58.3944 519.53C58.3944 525.496 58.5999 531.393 59.0794 537.289C59.5589 543.118 60.3125 548.946 61.34 554.774C62.3676 560.465 63.8061 566.088 65.5872 571.573C66.5463 574.248 67.5053 576.922 68.6699 579.527C69.2179 580.83 69.8344 582.064 70.451 583.367C71.0675 584.67 71.684 585.836 72.4376 587.001C73.7391 589.401 75.2462 591.664 76.8903 593.789C78.4659 595.915 80.1784 597.903 82.0965 599.755C89.2894 606.954 98.9483 611.069 109.087 611.343C111.621 611.411 114.156 611.343 116.691 611C119.294 610.726 121.828 610.246 124.363 609.629C125.665 609.354 126.898 608.943 128.199 608.6C129.501 608.257 130.734 607.777 132.035 607.297C134.57 606.406 137.105 605.309 139.571 604.212C144.572 601.812 149.435 599.138 154.162 596.189C163.684 590.224 172.589 583.024 181.152 575.345C189.715 567.528 197.799 559.231 205.402 550.523C220.747 532.832 234.722 514.045 247.189 494.297C259.794 474.481 271.234 453.911 281.441 432.723C291.717 411.536 300.691 389.8 308.431 367.584C316.172 345.505 322.201 322.877 326.516 299.838C328.64 288.456 330.078 276.937 330.9 265.417C331.586 253.966 331.723 242.447 330.489 231.27C329.873 225.716 328.982 220.231 327.681 214.814C326.996 212.14 326.311 209.534 325.42 206.997C325.009 205.694 324.53 204.46 324.05 203.226C323.571 201.992 323.091 200.758 322.475 199.592C321.379 197.192 320.214 194.929 318.844 192.735C317.542 190.541 316.035 188.484 314.323 186.564C311.103 182.724 307.198 179.57 302.883 177.17C298.43 174.77 293.566 173.193 288.497 172.576C285.894 172.233 283.222 172.096 280.619 172.165C277.879 172.233 275.207 172.439 272.467 172.85C271.097 173.056 269.727 173.33 268.357 173.605C266.987 173.879 265.617 174.222 264.247 174.565C261.507 175.25 258.835 176.142 256.163 177.102C250.752 179.09 245.477 181.49 240.339 184.164C235.201 186.907 230.132 189.924 225.268 193.215C220.405 196.506 215.609 200.003 211.02 203.706C201.703 211.18 192.798 219.134 184.44 227.705C167.726 244.984 152.518 263.703 139.16 283.725C125.802 303.678 113.745 324.66 103.264 346.396ZM100.798 345.23C111.347 323.357 123.13 302.17 136.146 281.668C149.161 261.097 163.752 241.556 179.714 223.179C187.797 213.991 196.36 205.215 205.402 196.986C214.582 188.758 224.241 181.01 234.859 174.359C240.202 170.999 245.751 167.982 251.505 165.308C254.451 164.005 257.396 162.771 260.411 161.742C261.918 161.194 263.493 160.714 265.069 160.234C266.644 159.754 268.22 159.343 269.796 159C273.015 158.245 276.303 157.628 279.66 157.285C283.085 156.943 286.442 156.805 289.867 157.011C296.923 157.354 303.842 159 310.281 161.811C316.789 164.759 322.749 168.805 327.749 173.879C330.215 176.347 332.545 179.022 334.6 181.833C336.655 184.576 338.504 187.524 340.148 190.472C341.039 191.981 341.724 193.489 342.546 194.998C343.368 196.506 343.985 198.083 344.601 199.592C345.971 202.677 347.067 205.832 348.095 208.917C350.081 215.157 351.725 221.534 352.822 227.979C353.986 234.356 354.74 240.733 355.219 247.11C355.699 253.486 355.973 259.863 355.904 266.24C355.836 278.857 355.014 291.473 353.37 304.021C350.081 328.843 344.533 353.253 336.929 377.046C321.79 424.495 300.005 469.544 272.193 510.891C258.287 531.667 242.531 551.14 225.131 569.105C216.294 578.156 206.978 586.658 197.114 594.544C192.181 598.521 187.044 602.292 181.7 605.857C176.357 609.423 170.877 612.783 165.191 615.8C159.437 618.885 153.477 621.628 147.38 623.891C144.298 624.988 141.146 626.085 137.858 626.908C136.283 627.388 134.57 627.731 132.994 628.142C131.419 628.553 129.706 628.828 127.994 629.102C124.569 629.65 121.143 629.993 117.718 630.13C114.225 630.268 110.731 630.13 107.237 629.719C100.181 628.896 93.2626 626.771 86.9603 623.479C80.7265 620.188 75.1777 615.731 70.5195 610.451C68.2589 607.914 66.2038 605.172 64.4227 602.223C62.6416 599.412 60.9975 596.464 59.6275 593.447C58.8739 591.938 58.3259 590.43 57.6408 588.921C56.9558 587.413 56.4763 585.904 55.9283 584.327C54.8322 581.241 54.0102 578.156 53.1881 575.07C51.6811 568.899 50.585 562.659 49.9 556.42C48.5299 543.94 48.5984 531.53 49.352 519.256C50.174 507.051 51.7496 494.846 53.9417 482.778C58.3944 458.848 64.6967 435.26 72.7116 412.29C80.932 389.525 90.1799 367.035 100.798 345.23Z" fill="black" fill-opacity="0.4"/>
</svg>
