<svg width="308" height="475" viewBox="0 0 308 475" fill="none" xmlns="http://www.w3.org/2000/svg">
<path opacity="0.1" d="M54.4132 190.157C43.8637 211.893 34.9583 234.314 27.6284 257.353C20.2986 280.255 15.0238 303.774 11.8726 327.635C10.3656 339.498 9.54351 351.428 9.54351 363.359C9.54351 369.325 9.74902 375.221 10.2285 381.118C10.7081 386.947 11.4616 392.775 12.4892 398.603C13.5167 404.294 14.9553 409.917 16.7364 415.402C17.6954 418.076 18.6545 420.751 19.7505 423.356C20.2985 424.659 20.9151 425.893 21.5316 427.196C22.1481 428.499 22.7647 429.664 23.5182 430.83C24.8198 433.23 26.3268 435.493 27.9709 437.618C29.5465 439.744 31.3276 441.732 33.1772 443.584C36.8078 447.149 41.0551 450.029 45.7133 452.018C50.303 453.938 55.2352 455.035 60.236 455.172C62.7706 455.309 65.3052 455.172 67.8398 454.897C70.4429 454.623 72.9776 454.143 75.5122 453.526C76.8138 453.252 78.0468 452.84 79.3484 452.498C80.65 452.155 81.883 451.675 83.1846 451.195C85.7192 450.303 88.2538 449.206 90.7199 448.109C95.7207 445.709 100.584 443.035 105.311 440.087C114.833 434.053 123.739 426.922 132.301 419.242C140.864 411.425 148.948 403.129 156.552 394.421C171.896 376.73 185.871 357.942 198.339 338.195C223.548 298.425 244.099 255.913 259.581 211.481C267.321 189.402 273.35 166.706 277.665 143.667C279.789 132.285 281.228 120.766 282.05 109.246C282.735 97.7954 282.872 86.276 281.639 75.0994C281.091 69.5454 280.132 64.06 278.899 58.6431C278.214 55.9689 277.528 53.3633 276.638 50.8263C276.227 49.5235 275.747 48.2893 275.268 47.0551C274.788 45.8209 274.309 44.5866 273.692 43.421C272.596 41.0211 271.363 38.7584 269.993 36.4956C268.692 34.3015 267.184 32.2444 265.472 30.3245C262.252 26.4847 258.348 23.3306 253.963 20.8621C249.511 18.4622 244.647 16.8852 239.578 16.2681C236.975 15.9252 234.303 15.7881 231.7 15.8567C228.96 15.9252 226.288 16.1309 223.616 16.6109C222.246 16.7481 220.876 17.0909 219.506 17.3652C218.136 17.6394 216.766 17.9823 215.396 18.3251C212.656 19.0108 209.984 19.9022 207.313 20.8621C201.901 22.8506 196.626 25.2505 191.557 27.9246C186.419 30.6674 181.35 33.6843 176.486 36.9756C171.554 40.2668 166.827 43.7638 162.169 47.4665C152.852 54.9404 143.947 62.8943 135.658 71.4653C118.943 88.7445 103.736 107.463 90.3774 127.485C76.8823 147.439 64.8942 168.42 54.4132 190.157ZM51.9471 188.991C62.4966 167.118 74.2791 145.93 87.2948 125.428C100.31 104.858 114.902 85.316 130.863 66.9398C138.946 57.7517 147.509 48.975 156.552 40.7468C165.731 32.5187 175.39 24.7705 186.008 18.1194C191.351 14.7596 196.9 11.7426 202.654 9.06845C205.6 7.76565 208.546 6.53142 211.56 5.5029C213.067 4.95436 214.642 4.47437 216.218 3.9944C217.794 3.51442 219.369 3.10302 221.013 2.76018C224.233 2.00593 227.521 1.38882 230.878 1.04598C234.303 0.703143 237.66 0.56599 241.085 0.771694C248.141 1.11453 255.059 2.76017 261.499 5.57145C268.007 8.51988 273.898 12.5654 278.967 17.6394C281.433 20.1079 283.762 22.782 285.817 25.5933C287.872 28.336 289.722 31.2845 291.366 34.3015C292.257 35.81 292.942 37.3184 293.764 38.8269C294.586 40.3354 295.202 41.9125 295.819 43.421C297.189 46.5066 298.285 49.5921 299.313 52.7462C301.368 58.9859 302.943 65.3628 304.108 71.8082C305.272 78.185 306.026 84.5618 306.505 90.9386C306.985 97.3154 307.259 103.692 307.19 110C307.122 122.617 306.3 135.234 304.656 147.781C301.368 172.603 295.887 197.013 288.215 220.875C273.076 268.324 251.292 313.373 223.548 354.72C209.642 375.496 193.886 394.969 176.486 412.934C167.718 421.985 158.333 430.487 148.468 438.373C143.536 442.35 138.398 446.121 133.055 449.686C127.712 453.252 122.232 456.612 116.546 459.697C110.791 462.783 104.832 465.457 98.6663 467.788C95.5151 468.885 92.4326 469.982 89.1444 470.805C87.5688 471.285 85.8562 471.628 84.2806 472.039C82.705 472.451 80.9925 472.725 79.2799 472.999C75.8548 473.548 72.4296 473.891 69.0044 474.028C65.5108 474.165 62.017 474.028 58.5234 473.617C51.399 472.794 44.5487 470.668 38.2464 467.377C32.0126 464.086 26.4638 459.629 21.8056 454.349C19.545 451.743 17.4899 449.001 15.7088 446.121C13.9277 443.31 12.2836 440.361 10.9136 437.344C10.16 435.836 9.612 434.327 8.92697 432.819C8.24193 431.31 7.76241 429.802 7.21438 428.225C6.11833 425.139 5.29629 422.053 4.47425 418.968C2.96718 412.797 1.87118 406.557 1.18614 400.317C-0.183923 387.838 -0.115453 375.427 0.638084 363.154C1.46012 350.948 3.03575 338.743 5.22786 326.675C9.68057 302.745 15.9828 279.158 23.9977 256.187C32.0126 233.217 41.3291 210.795 51.9471 188.991Z" fill="black" fill-opacity="0.4"/>
</svg>
