<svg width="308" height="474" viewBox="0 0 308 474" fill="none" xmlns="http://www.w3.org/2000/svg">
<path opacity="0.1" d="M54.3762 189.413C43.8952 211.149 34.9213 233.571 27.5914 256.61C20.2616 279.511 14.9868 303.03 11.8357 326.892C10.3286 338.754 9.50656 350.685 9.43806 362.616C9.43806 368.581 9.64357 374.478 10.1231 380.375C10.6026 386.272 11.3562 392.1 12.3837 397.86C13.4112 403.551 14.8498 409.173 16.6309 414.659C17.59 417.333 18.549 420.007 19.6451 422.613C20.1931 423.916 20.8096 425.15 21.4261 426.453C22.0427 427.687 22.6592 428.921 23.4127 430.087C24.7143 432.487 26.2214 434.749 27.8654 436.875C29.441 439.001 31.1536 440.989 33.0717 442.84C36.7024 446.406 40.9496 449.286 45.6078 451.274C50.1975 453.194 55.1298 454.291 60.1305 454.428C62.6651 454.565 65.1997 454.428 67.7344 454.154C70.3375 453.88 72.8721 453.4 75.4067 452.783C76.7083 452.508 77.9414 452.097 79.2429 451.754C80.5445 451.411 81.7775 450.931 83.0791 450.451C85.6137 449.56 88.1484 448.463 90.6145 447.366C95.6152 444.966 100.479 442.292 105.206 439.343C114.728 433.378 123.633 426.178 132.196 418.499C140.759 410.682 148.842 402.385 156.446 393.677C171.791 376.055 185.766 357.199 198.233 337.451C210.838 317.635 222.278 297.065 232.485 275.877C242.76 254.69 251.734 232.954 259.475 210.738C267.216 188.659 273.244 166.031 277.56 142.992C279.684 131.61 281.122 120.091 282.013 108.503C282.698 97.0518 282.835 85.5324 281.602 74.3558C280.985 68.8018 280.095 63.3164 278.793 57.8995C278.108 55.2253 277.423 52.6197 276.532 50.0827C276.121 48.7799 275.642 47.5457 275.162 46.3115C274.683 45.0773 274.203 43.843 273.587 42.6774C272.491 40.2775 271.258 38.0148 269.888 35.752C268.586 33.5578 267.079 31.5008 265.366 29.5809C258.859 21.7641 249.611 16.7587 239.541 15.593C236.938 15.2502 234.266 15.113 231.663 15.1816C228.923 15.2502 226.251 15.4559 223.579 15.9359C222.209 16.073 220.839 16.4158 219.469 16.6901C218.099 16.9644 216.729 17.3072 215.359 17.6501C212.619 18.3357 209.947 19.2271 207.276 20.1871C201.864 22.1755 196.589 24.5754 191.451 27.2496C186.314 29.9923 181.244 33.0093 176.381 36.3006C171.517 39.5918 166.722 43.0888 162.063 46.7915C152.747 54.2654 143.842 62.2193 135.484 70.7903C118.769 88.0694 103.562 106.788 90.2035 126.81C76.8453 146.695 64.8572 167.677 54.3762 189.413ZM51.9786 188.247C62.5281 166.374 74.3107 145.187 87.3263 124.685C100.342 104.114 114.933 84.5724 130.894 66.1962C138.978 57.0081 147.541 48.2314 156.583 40.0032C165.763 31.7751 175.422 24.0269 186.04 17.3758C191.383 14.016 196.932 10.999 202.617 8.39338C205.563 7.09059 208.509 5.85636 211.523 4.82784C213.03 4.2793 214.605 3.79932 216.181 3.31935C217.757 2.83937 219.332 2.42796 220.908 2.08512C224.127 1.33087 227.416 0.713761 230.772 0.370921C234.197 0.0280813 237.554 -0.109055 240.979 0.0966494C248.035 0.439489 254.954 2.08512 261.393 4.89641C267.901 7.84483 273.792 11.8903 278.862 16.9644C281.328 19.4328 283.657 22.107 285.712 24.9183C287.767 27.661 289.617 30.6094 291.261 33.6264C292.151 35.1349 292.836 36.6434 293.658 38.1519C294.48 39.6604 295.097 41.1689 295.713 42.746C297.083 45.8315 298.179 48.9171 299.207 52.0712C301.194 58.3109 302.838 64.6877 303.934 71.1331C305.098 77.5099 305.852 83.8868 306.331 90.2636C306.811 96.6404 307.085 103.017 307.016 109.394C306.948 122.011 306.126 134.627 304.482 147.106C301.194 171.928 295.645 196.338 288.041 220.2C280.506 243.924 271.258 267.032 260.434 289.454C249.611 311.875 237.212 333.474 223.374 354.113C209.468 374.889 193.712 394.363 176.312 412.328C167.544 421.379 158.159 429.881 148.363 437.766C143.431 441.743 138.293 445.514 132.95 449.08C127.606 452.646 122.126 456.005 116.44 459.091C110.686 462.176 104.726 464.919 98.5609 467.182C95.4097 468.279 92.3271 469.376 89.0389 470.199C87.4633 470.679 85.7507 471.022 84.1752 471.433C82.5996 471.845 80.887 472.119 79.1744 472.393C75.7493 472.942 72.3241 473.284 68.8989 473.422C65.4053 473.559 61.9116 473.422 58.4179 473.01C51.3621 472.187 44.4432 470.062 38.1409 466.771C31.9071 463.479 26.3584 459.022 21.7001 453.674C19.4395 451.137 17.3844 448.394 15.6034 445.514C13.8223 442.703 12.1782 439.755 10.8081 436.738C10.0546 435.229 9.50656 433.721 8.82153 432.212C8.1365 430.704 7.65697 429.195 7.10895 427.618C6.01289 424.533 5.19085 421.447 4.36881 418.362C2.86174 412.19 1.76569 405.951 1.08066 399.711C-0.289411 387.232 -0.220908 374.821 0.532629 362.547C1.35467 350.342 2.93024 338.137 5.19085 326.069C9.64357 302.139 15.9459 278.551 23.9608 255.581C32.0441 232.474 41.3606 210.052 51.9786 188.247Z" fill="black" fill-opacity="0.4"/>
</svg>
